<?xml version="1.0" encoding="UTF-8"?>
<svg width="128px" height="128px" viewBox="0 0 128 128" version="1.1" xmlns="http://www.w3.org/2000/svg" xmlns:xlink="http://www.w3.org/1999/xlink">
    <!-- Generator: sketchtool 52.6 (67491) - http://www.bohemiancoding.com/sketch -->
    <title>D8F142ED-A5AD-40DA-AC28-06BF863BD5D6</title>
    <desc>Created with sketchtool.</desc>
    <g id="Page-1" stroke="none" stroke-width="1" fill="none" fill-rule="evenodd">
        <g id="Spotilght_errorAPI" transform="translate(-652.000000, -245.000000)" fill="#000000" fill-rule="nonzero">
            <g id="Group-3-Copy-6" transform="translate(446.000000, 245.000000)">
                <g id="noun_lifebuoy_866299" transform="translate(206.000000, 0.000000)">
                    <path d="M122.125474,51.4290526 L109.446737,39.168 C104.680053,30.6341241 97.6241443,23.6015482 89.0745263,18.8631579 L76.8,6.144 C69.7939594,-0.849171418 58.4485669,-0.849171418 51.4425263,6.144 L39.1814737,18.6206316 C30.2833852,23.4672432 22.978571,30.7860961 18.1490526,39.6934737 L5.64547368,51.9275789 C-1.34769773,58.9336195 -1.34769773,70.2790121 5.64547368,77.2850526 L18.4589474,89.4113684 C23.2156328,97.9700711 30.2724552,105.026893 38.8311579,109.783579 L50.9574737,122.570105 C57.9635142,129.563277 69.3089068,129.563277 76.3149474,122.570105 L88.5086316,110.026105 C97.4271822,105.210068 104.760273,97.9144154 109.621895,89.0206316 L122.125474,76.8 C129.127616,69.7924114 129.127616,58.4366412 122.125474,51.4290526 Z M54.8109474,9.43157895 C59.9599069,4.29387003 68.2960931,4.29387003 73.4450526,9.43157895 L78.1473684,14.2821053 C68.9906435,11.7166459 59.3093718,11.6840491 50.1355789,14.1877895 L54.8109474,9.43157895 Z M42.3747368,21.7330526 L42.6442105,21.5983158 C56.041407,14.9000272 71.8103825,14.9000272 85.2075789,21.5983158 L85.8138947,21.9082105 C86.9905965,22.5729123 88.122386,23.2331228 89.2092632,23.8888421 L77.6353684,35.4627368 C77.4237734,35.6716799 77.2464389,35.9126729 77.1098947,36.1768421 C68.9063449,32.3770093 59.4618277,32.3033391 51.2,35.9747368 C51.0854529,35.7890574 50.9498149,35.6172492 50.7957895,35.4627368 L39.0063158,23.6732632 C40.093193,22.9995789 41.216,22.3663158 42.3747368,21.7734737 L42.3747368,21.7330526 Z M8.98694737,73.9166316 C6.50886349,71.440291 5.11766334,68.0798802 5.12019098,64.5765737 C5.12271862,61.0732672 6.51876639,57.7148674 9.00042105,55.2421053 L13.8374737,50.4050526 C11.312075,59.6764682 11.3773177,69.4628685 14.0261053,78.6997895 L8.98694737,73.9166316 Z M21.5309474,86.0429474 C14.6002078,72.5554227 14.5101366,56.5727828 21.2884211,43.008 L21.3692632,42.9271579 C21.917193,41.8402807 22.5055439,40.7758596 23.1343158,39.7338947 L34.8429474,51.4425263 C34.9862314,51.5847441 35.1443247,51.7112187 35.3145263,51.8197895 C31.53854,60.2104025 31.6370599,69.8358027 35.584,78.1473684 C35.2938978,78.2855721 35.0295905,78.47241 34.8025263,78.6997895 L23.6867368,89.8155789 C22.941193,88.6209123 22.2315789,87.4262456 21.5578947,86.2315789 L21.5309474,86.0429474 Z M72.96,119.242105 C67.8110405,124.379814 59.4748542,124.379814 54.3258947,119.242105 L49.408,114.162526 C58.6925955,116.834587 68.5341471,116.895193 77.8509474,114.337684 L72.96,119.242105 Z M63.9326316,111.939368 C56.3636684,111.951264 48.902033,110.149383 42.1726316,106.684632 L42.0917895,106.684632 C41.0138947,106.127719 39.9584561,105.530386 38.9254737,104.892632 L49.9469474,93.8711579 C50.1755946,93.6400499 50.362496,93.3710943 50.4993684,93.0762105 C54.708884,95.0757267 59.3128031,96.1070046 63.9730526,96.0943158 C68.6404008,96.144954 73.2547753,95.1021053 77.4467368,93.0492632 L77.3254737,93.1166316 L89.0475789,104.838737 C81.5073276,109.51524 72.8053043,111.98019 63.9326316,111.952842 L63.9326316,111.939368 Z M63.9326316,91.7288421 C53.0373293,91.7247326 43.2042574,85.1950923 38.9734988,75.1547581 C34.7427401,65.114424 36.9373332,53.516611 44.544,45.7162105 L44.9886316,45.2715789 C53.7366063,36.7229491 67.1255988,35.0911427 77.6707525,41.2883894 C88.2159063,47.4856361 93.3050264,59.9767837 90.093139,71.7788985 C86.8812517,83.5810133 76.1639901,91.770532 63.9326316,91.7692632 L63.9326316,91.7288421 Z M106.509474,85.6522105 L106.442105,85.8004211 C105.768421,87.1298246 105.03186,88.4232982 104.232421,89.6808421 L92.3621053,77.8374737 C94.2869765,73.7000216 95.2979784,69.1964677 95.3263158,64.6332632 C95.3178672,60.2831559 94.3999835,55.9828707 92.6315789,52.0084211 C92.9795903,51.8656744 93.2956464,51.6549703 93.5612632,51.3886316 L104.933053,40.0168421 C105.40014,40.7983158 105.849263,41.5932632 106.280421,42.4016842 L106.576842,42.9675789 C113.2923,56.4090179 113.267327,72.2320363 106.509474,85.6522105 Z M118.770526,73.3911579 L114.000842,78.1473684 C116.528322,68.9505784 116.505034,59.239299 113.933474,50.0547368 L118.797474,54.7570526 C121.273775,57.2351811 122.662553,60.5965979 122.657498,64.0999053 C122.652442,67.6032126 121.253969,70.9606074 118.770526,73.4315789 L118.770526,73.3911579 Z" id="Shape"></path>
                </g>
            </g>
        </g>
    </g>
</svg>