<?xml version="1.0" encoding="UTF-8"?>
<svg width="122px" height="127px" viewBox="0 0 122 127" version="1.1" xmlns="http://www.w3.org/2000/svg" xmlns:xlink="http://www.w3.org/1999/xlink">
    <!-- Generator: sketchtool 52.6 (67491) - http://www.bohemiancoding.com/sketch -->
    <title>02502A5C-CC4C-449F-A6F0-0AFFA142AC25</title>
    <desc>Created with sketchtool.</desc>
    <g id="Page-1" stroke="none" stroke-width="1" fill="none" fill-rule="evenodd">
        <g id="Spotilght_noResult" transform="translate(-659.000000, -244.000000)" fill="#000000">
            <g id="Group-3-Copy-2" transform="translate(453.000000, 245.000000)">
                <g id="noun_Telescope_1753124" transform="translate(206.000000, 0.000000)">
                    <rect id="Rectangle" x="57.2345679" y="52.7108434" width="4.51851852" height="4.51807229"></rect>
                    <path d="M93.2203415,123.179617 L66.5483938,68.7936001 L66.5483938,63.9220064 L71.2893842,68.6653458 C72.0967789,69.4728966 73.4055657,69.4728966 74.2129604,68.6653458 L74.8187652,68.0592409 L81.6273484,74.8711976 C82.4347431,75.6787484 83.74353,75.6787484 84.5509247,74.8711976 L87.2243222,72.1964755 L89.8977198,74.8711976 C90.7051145,75.6787484 92.0139013,75.6787484 92.821296,74.8711976 L94.8888889,72.8025804 L91.9653126,69.8775555 L91.3595079,70.4836604 L90.1478985,69.2714507 L92.821296,66.5967285 C93.6284469,65.7889338 93.6284469,64.4794984 92.821296,63.6717037 L86.0127128,56.859747 L86.6185175,56.2536422 C87.4256684,55.4458474 87.4256684,54.1364121 86.6185175,53.3286173 L77.7423414,44.4480434 L78.9539508,43.2358337 L83.6949412,47.9791731 L86.6185175,45.0541483 L76.2805533,34.7110619 L73.356977,37.6360867 L76.0303746,40.3108088 L74.8187652,41.5230186 L65.4546372,32.1542509 L67.0301429,30.5965821 C67.84188,29.793364 67.8492849,28.4839135 67.0466837,27.6715573 L40.3292489,0.618180616 C39.5287215,-0.196266582 38.2199006,-0.207379476 37.4056726,0.593357208 L35.5138252,2.45511275 C31.231742,-0.535646868 25.4258576,-0.0409661243 21.7109129,3.63116698 C17.9959683,7.30330008 17.4313998,13.1056583 20.3687076,17.425696 L18.6877546,19.0805898 C17.8760175,19.883808 17.8686127,21.1932584 18.6712139,22.0056146 L45.386581,49.0817461 C46.1888285,49.8944615 47.4976346,49.9027961 48.3101573,49.1003636 L50.0324621,47.3978916 L52.6521023,50.0188297 C50.9584223,51.8953545 50.0167443,54.3313765 50.007651,56.859747 L50.007651,60.9969816 C50.007651,62.1394473 50.9333439,63.0655988 52.0752439,63.0655988 L54.1428367,63.0655988 L54.1428367,68.7936001 L27.470889,123.179617 L31.1801506,125 L42.1507982,102.621698 L58.2780224,108.000103 L58.2780224,124.089808 L62.4132081,124.089808 L62.4132081,107.998035 L78.5404323,102.61963 L89.4986743,125 L93.2203415,123.179617 Z M54.1428367,58.9283643 L54.1428367,56.859747 C54.1428367,53.4323497 56.9199153,50.6538952 60.3456152,50.6538952 C63.7713152,50.6538952 66.5483938,53.4323497 66.5483938,56.859747 L66.5483938,58.9283643 L54.1428367,58.9283643 Z M88.4359316,65.1342161 L83.0891365,70.4836604 L77.7423414,65.1342161 L83.0891365,59.7847719 L88.4359316,65.1342161 Z M22.626519,11.350167 C22.6222792,8.99400794 23.8590783,6.80989763 25.8813099,5.60240873 C27.9035416,4.39491983 30.4120393,4.34268676 32.4827341,5.46495089 L23.4101367,14.4344754 C22.9026779,13.4852108 22.6337343,12.4266524 22.626519,11.350167 Z M23.0648487,20.592749 L38.8426497,4.99537476 L62.6530489,29.1071777 L61.6192524,30.1414863 C61.3706609,30.2443124 61.1445133,30.3946837 60.9534875,30.5841704 L48.5479305,42.9958741 C48.5021037,43.0567173 48.4599862,43.1202702 48.4218073,43.1861869 L46.8752479,44.714895 L23.0648487,20.592749 Z M62.5124525,35.0606582 L82.2331531,54.7911298 L81.6273484,55.3972346 L73.356977,63.6717037 L72.7511723,64.2778086 L70.4230628,61.9485455 C70.5873804,61.6578598 70.6769032,61.3308687 70.6835795,60.9969816 L70.6835795,56.859747 C70.6767438,51.1502534 66.0522814,46.5234998 60.3456152,46.5166607 C58.839268,46.5231717 57.3530075,46.8629558 55.9933323,47.5116656 L52.9746468,44.4894157 L62.5124525,35.0606582 Z M62.4132081,63.0655988 L62.4132081,67.2028334 L58.2780224,67.2028334 L58.2780224,63.0655988 L62.4132081,63.0655988 Z M43.9971586,98.8733638 L57.4985399,71.3400679 L58.2780224,71.3400679 L58.2780224,103.635321 L43.9971586,98.8733638 Z M62.4132081,103.635321 L62.4132081,71.3400679 L63.1926906,71.3400679 L76.6940719,98.8733638 L62.4132081,103.635321 Z" id="Shape" stroke="#000000" stroke-width="0.75" fill-rule="nonzero"></path>
                    <polygon id="Path" points="8.25241559 76.8072289 8.2659306 74.5566409 10.5161799 74.570158 10.5432099 70.0644763 8.29296062 70.0509593 8.30647563 67.7958656 3.80147213 67.7710843 3.78795712 70.0239252 1.53320286 70.0104081 1.50617284 74.5160898 3.7609271 74.5296068 3.74741208 76.7824477"></polygon>
                    <path d="M81.3333333,15.060241 C85.4925148,15.060241 88.8641975,11.6888912 88.8641975,7.53012048 C88.8641975,3.37134978 85.4925148,0 81.3333333,0 C77.1741519,0 73.8024691,3.37134978 73.8024691,7.53012048 C73.8024691,9.5272326 74.5958972,11.4425482 76.0082082,12.8547197 C77.4205192,14.2668913 79.336024,15.060241 81.3333333,15.060241 Z M81.3333333,4.30292599 C83.1158397,4.30292599 84.5608466,5.74779018 84.5608466,7.53012048 C84.5608466,9.31245078 83.1158397,10.757315 81.3333333,10.757315 C79.550827,10.757315 78.1058201,9.31245078 78.1058201,7.53012048 C78.1058201,5.74779018 79.550827,4.30292599 81.3333333,4.30292599 Z" id="Shape" fill-rule="nonzero"></path>
                    <path d="M16.5328595,49.6987643 L16.5668971,49.6987643 C19.8842748,49.7092997 22.5820568,47.0207731 22.5925618,43.6937719 C22.6030669,40.3667708 19.9223169,37.6611627 16.6049392,37.6506271 L16.5668971,37.6506271 C13.2495194,37.6412006 10.5526337,40.3306263 10.5432345,43.6576275 C10.5338353,46.9846287 13.2154817,49.6893378 16.5328595,49.6987643 Z M16.5668971,41.6666729 L16.5809126,41.6666729 C17.6867052,41.6705544 18.5799897,42.5727234 18.5761194,43.6817238 C18.5722492,44.7907242 17.6726897,45.6866001 16.5668971,45.6827186 L16.5548838,45.6827186 C15.4490913,45.6793916 14.5553586,44.777672 14.5586759,43.6686716 C14.5619933,42.5596713 15.4611046,41.6633459 16.5668971,41.6666729 Z" id="Shape" fill-rule="nonzero"></path>
                    <polygon id="Path" points="115.857927 39.1566265 117.481481 37.5332322 119.105036 39.1566265 122 36.2619486 120.376445 34.6385542 122 33.0151599 119.105036 30.1204819 117.481481 31.7438763 115.857927 30.1204819 112.962963 33.0151599 114.586518 34.6385542 112.962963 36.2619486"></polygon>
                    <rect id="Rectangle" x="0" y="4.51807229" width="4.51851852" height="4.51807229"></rect>
                    <polygon id="Rectangle" transform="translate(32.947204, 62.211869) rotate(-89.664000) translate(-32.947204, -62.211869) " points="30.8733706 60.1441074 35.0211087 60.1440362 35.0210375 64.2796299 30.8732994 64.2797011"></polygon>
                    <rect id="Rectangle" x="106.938272" y="1.5060241" width="4.51851852" height="4.51807229"></rect>
                    <rect id="Rectangle" x="106.938272" y="64.7590361" width="4.51851852" height="4.51807229"></rect>
                </g>
            </g>
        </g>
    </g>
</svg>